<svg xmlns="http://www.w3.org/2000/svg" viewBox="430 300 1150 1450" >
  <g transform="translate(0,2048) scale(0.1,-0.1)" fill="#2469FF">
    <path d="M6100 17409 c-312 -9 -491 -39 -748 -125 -483 -162 -837 -402 -1168 -789 -170 -200 -344 -496 -437 -746 -37 -98 -96 -302 -117 -399 -41 -199 -40 -55 -40 -4855 0 -2889 4 -4613 10 -4688 19 -234 104 -555 201 -763 71 -152 200 -374 273 -469 227 -294 484 -515 811 -697 294 -163 662 -270 988 -285 199 -10 8802 -8 8877 1 388 51 814 225 1137 465 165 122 432 387 525 521 286 412 427 784 473 1245 14 144 15 625 12 4700 -4 4838 -1 4585 -47 4835 -15 82 -71 268 -117 390 -51 134 -190 406 -271 530 -92 142 -139 196 -332 391 -145 146 -205 196 -375 317 -52 37 -238 142 -252 142 -6 0 -22 9 -36 20 -33 26 -196 91 -367 147 -139 45 -312 84 -460 103 -93 12 -8116 20 -8540 9z m3969 -2332 c60 -27 176 -111 212 -153 35 -42 71 -118 89 -191 18 -69 20 -111 20 -439 0 -231 -4 -373 -11 -391 -5 -15 -27 -45 -47 -65 -32 -34 -41 -38 -87 -38 -55 0 -113 31 -137 73 -10 16 -14 120 -18 402 -5 377 -5 380 -29 427 -14 28 -41 59 -65 75 l-41 28 -2140 3 c-1531 2 -2155 0 -2191 -8 -37 -8 -62 -21 -87 -47 -71 -71 -68 8 -65 -1359 l3 -1229 22 -40 c24 -46 55 -76 100 -99 29 -14 152 -16 1303 -16 1412 0 1307 5 1370 -66 55 -63 34 -154 -48 -209 l-38 -25 -1306 0 c-1249 0 -1307 1 -1360 19 -88 30 -139 60 -200 119 -68 65 -110 127 -134 202 -18 52 -19 127 -22 1304 -3 1380 -4 1345 60 1476 39 80 143 186 219 223 122 59 -33 56 2364 54 l2200 -2 64 -28z m-3524 -1068 c129 -29 244 -154 245 -267 l0 -44 -102 5 -103 5 -8 33 c-21 81 -76 119 -172 119 -131 0 -201 -85 -145 -177 24 -40 31 -43 192 -99 195 -67 268 -115 314 -205 29 -58 33 -160 8 -232 -49 -143 -286 -220 -514 -165 -56 14 -92 31 -152 75 -54 39 -105 132 -110 198 l-3 40 99 8 c55 4 103 4 106 0 4 -5 12 -27 19 -50 16 -56 54 -100 99 -113 55 -15 158 -12 192 5 72 37 92 117 44 175 -33 39 -57 51 -201 101 -146 52 -176 66 -235 118 -74 66 -105 174 -78 273 16 55 91 132 166 169 90 45 215 55 339 28z m1143 2 l32 -1 0 -80 c0 -57 -4 -80 -12 -81 -7 -1 -64 -1 -126 0 -62 2 -126 -1 -142 -4 l-30 -7 0 -434 0 -434 -87 0 c-49 0 -98 3 -110 6 l-23 6 0 429 0 429 -107 1 c-124 2 -168 5 -189 13 -10 4 -14 24 -14 80 l0 76 193 2 c171 3 527 2 615 -1z m729 -20 c87 -32 160 -97 190 -170 17 -40 19 -154 4 -220 -15 -70 -88 -159 -149 -182 -13 -5 -22 -12 -20 -17 4 -8 100 -189 174 -324 l52 -98 -117 0 -118 0 -97 190 -97 190 -85 0 -84 0 0 -190 0 -190 -110 0 -110 0 -1 485 c-1 267 -1 496 -1 510 0 14 0 27 1 30 1 3 117 5 259 5 228 0 263 -2 309 -19z m2151 -483 c46 -31 50 -41 85 -203 l22 -100 106 -55 107 -54 56 44 c31 25 74 60 96 77 23 18 60 38 83 44 79 21 100 7 303 -198 182 -184 224 -240 224 -296 0 -36 -36 -106 -99 -192 -60 -81 -60 -78 2 -205 l42 -85 109 -22 c130 -27 163 -45 196 -104 25 -44 25 -45 25 -314 0 -241 -2 -274 -18 -303 -24 -45 -68 -69 -157 -87 -152 -32 -170 -37 -170 -47 0 -6 -18 -48 -40 -95 -22 -47 -40 -94 -40 -104 0 -9 23 -44 50 -76 82 -95 108 -171 87 -253 -3 -14 -94 -112 -209 -226 -260 -258 -248 -255 -449 -118 l-96 65 -99 -47 c-54 -26 -100 -48 -102 -49 -2 -2 -12 -47 -23 -101 -24 -124 -44 -169 -88 -202 l-34 -27 -289 -3 c-279 -3 -290 -2 -323 18 -52 32 -75 80 -99 203 -25 125 -12 110 -140 166 -37 17 -76 31 -86 31 -10 0 -54 -25 -100 -56 -120 -82 -160 -98 -212 -84 -37 10 -71 40 -229 198 -103 103 -194 203 -204 222 -38 75 -18 147 72 259 29 36 53 73 53 82 0 9 -19 60 -43 115 -48 110 -32 99 -181 124 -105 17 -162 51 -185 112 -6 17 -11 136 -12 292 -1 283 1 295 53 343 32 30 80 49 158 62 129 23 119 17 152 90 16 36 36 80 44 98 21 47 18 59 -32 121 -26 31 -60 84 -77 118 -38 78 -33 112 30 191 68 84 333 352 365 369 37 19 107 18 148 -4 19 -9 72 -45 117 -79 l81 -62 105 49 105 49 26 111 c29 127 50 175 80 193 59 34 82 36 347 34 l266 -2 41 -27z m4439 -1530 c86 -36 144 -80 198 -149 58 -74 91 -146 104 -229 7 -43 11 -589 11 -1627 0 -1705 2 -1640 -57 -1763 -35 -73 -161 -198 -233 -232 -30 -14 -79 -31 -108 -37 -75 -16 -4369 -16 -4444 0 -82 17 -149 54 -221 119 -73 68 -107 121 -143 227 l-24 72 0 717 0 717 25 42 c33 57 63 75 125 75 66 0 81 -9 119 -68 l31 -49 0 -701 c0 -700 0 -702 22 -748 15 -32 36 -56 67 -75 l45 -29 2173 0 c2346 0 2210 -3 2260 51 56 61 53 -23 53 1694 l0 1583 -32 48 c-19 27 -50 56 -73 68 -40 21 -47 21 -1323 23 l-1282 1 -34 22 c-45 27 -81 99 -72 143 9 46 49 101 87 120 31 15 139 17 1349 14 l1315 -2 62 -27z m-6967 -918 c14 -9 34 -32 45 -51 18 -31 20 -57 25 -287 l5 -252 250 -3 c232 -2 253 -4 285 -23 107 -62 108 -209 2 -263 -35 -18 -66 -21 -288 -25 l-249 -6 -5 -257 c-4 -222 -7 -263 -23 -290 -50 -92 -193 -82 -251 17 -20 33 -21 51 -21 282 l0 246 -60 4 c-33 2 -147 5 -254 6 -217 4 -234 8 -276 69 -47 69 -30 156 42 210 l36 28 258 3 257 3 0 222 c1 122 1 239 1 260 1 29 9 47 39 78 55 59 124 70 182 29z m3285 -1071 c116 -36 189 -131 189 -249 0 -80 -24 -131 -89 -188 l-45 -40 28 -11 c82 -34 134 -124 134 -233 0 -90 -43 -184 -104 -228 -82 -60 -116 -65 -413 -65 l-270 0 -3 518 -2 517 254 0 c228 0 261 -2 321 -21z m577 -356 c3 -360 4 -380 24 -413 11 -19 38 -45 60 -58 34 -20 51 -22 122 -20 80 3 85 4 112 35 16 18 34 49 39 70 7 23 11 177 11 401 l0 362 110 0 110 0 1 -162 c4 -489 2 -584 -16 -639 -38 -119 -120 -200 -239 -234 -44 -13 -85 -16 -170 -13 -94 3 -120 8 -168 30 -79 37 -122 71 -157 126 -58 92 -61 119 -61 524 l0 368 109 0 110 0 3 -377z m986 -140 l-3 -518 -102 -3 -103 -3 -1 148 c0 81 -3 316 -5 521 l-5 372 111 0 110 0 -2 -517z m422 87 l0 -430 230 0 231 0 -3 -87 -3 -88 -335 0 -335 0 -3 485 c-1 267 0 500 3 518 l6 32 104 0 105 0 0 -430z m1048 415 c88 -21 117 -38 199 -118 59 -57 78 -84 105 -146 30 -71 32 -85 36 -216 4 -122 1 -150 -17 -212 -35 -118 -138 -239 -246 -289 -73 -34 -157 -44 -362 -44 l-183 0 0 520 0 520 203 0 c143 0 220 -5 265 -15z m-1350 -2485 c23 -16 93 -74 155 -127 63 -54 156 -132 207 -173 51 -41 143 -118 204 -170 61 -52 145 -122 186 -155 41 -33 113 -94 160 -135 47 -42 158 -136 247 -208 196 -161 243 -215 243 -282 0 -68 -36 -110 -247 -282 -48 -40 -156 -131 -239 -203 -140 -120 -195 -167 -372 -317 -35 -29 -91 -74 -124 -100 -33 -26 -88 -71 -122 -101 -161 -141 -326 -266 -358 -272 -50 -10 -114 20 -149 68 l-29 40 0 284 0 283 -2116 0 c-1530 0 -2127 3 -2160 11 -55 14 -88 52 -110 125 -13 47 -15 116 -12 497 3 499 3 493 81 545 l41 27 2138 3 2138 2 0 271 c0 246 2 273 19 307 20 38 55 75 81 85 42 15 98 6 138 -23z m-6192 -659 c23 -10 54 -36 70 -57 l29 -37 0 -486 c0 -472 -1 -487 -21 -521 -48 -83 -152 -107 -217 -50 -18 16 -39 47 -45 68 -19 62 -17 974 2 1010 25 49 82 90 126 91 8 0 34 -8 56 -18z m1178 9 c55 -12 87 -39 115 -94 l24 -47 -1 -454 c0 -315 -4 -465 -12 -489 -12 -39 -77 -102 -112 -111 -13 -3 -178 -5 -368 -3 -325 3 -347 4 -385 24 -29 14 -47 34 -65 70 l-25 49 0 445 c0 245 4 462 8 482 10 49 51 96 102 119 36 17 71 19 360 19 176 0 338 -5 359 -10z m-1688 -22 c66 -45 64 -26 65 -559 1 -509 1 -519 -44 -568 -69 -75 -195 -52 -238 43 -17 38 -19 74 -19 511 0 469 0 470 23 510 46 82 143 111 213 63z"/>
    <path d="M8069 13846 c-2 -2 -3 -74 -1 -160 l3 -156 118 0 c106 0 121 2 152 23 44 29 69 80 69 140 0 69 -23 112 -74 137 -35 16 -62 20 -152 20 -61 0 -113 -2 -115 -4z"/>
    <path d="M10153 13233 c-13 -2 -25 -14 -28 -26 -3 -12 -12 -58 -21 -102 -22 -112 -38 -136 -104 -158 -94 -31 -268 -108 -307 -135 -28 -19 -54 -27 -98 -30 -60 -3 -61 -3 -159 62 l-100 66 -30 -24 c-17 -13 -53 -48 -79 -79 l-49 -55 50 -64 c71 -90 92 -128 92 -166 0 -35 -22 -97 -44 -122 -17 -19 -74 -157 -110 -266 -15 -45 -35 -89 -45 -98 -11 -10 -62 -26 -115 -37 -159 -32 -148 -22 -144 -139 2 -56 8 -104 14 -110 7 -7 49 -18 94 -26 93 -16 150 -42 168 -76 6 -12 26 -66 42 -118 17 -52 55 -140 85 -196 30 -56 55 -115 55 -130 0 -33 -16 -66 -81 -161 -25 -37 -49 -73 -53 -80 -8 -14 129 -163 150 -163 7 0 60 32 118 71 125 85 146 88 226 34 61 -41 159 -88 229 -109 143 -43 170 -70 190 -189 7 -39 17 -87 23 -104 l10 -33 107 0 c107 0 108 0 120 26 7 15 16 63 22 108 6 47 17 91 27 106 21 29 84 62 162 86 73 21 188 75 244 113 62 43 89 40 182 -20 44 -29 96 -63 118 -76 l38 -25 69 70 c38 39 69 78 69 88 0 9 -27 59 -61 111 -81 125 -83 141 -27 245 47 88 87 187 112 279 9 31 25 68 36 82 24 30 88 51 185 62 33 4 66 12 73 17 8 7 12 43 12 114 0 119 -1 120 -99 134 -149 21 -179 42 -212 151 -32 107 -85 236 -112 278 -47 71 -41 148 17 211 13 14 38 47 55 73 l33 48 -79 81 -79 80 -85 -57 c-142 -98 -167 -101 -269 -41 -73 44 -201 100 -275 121 -92 26 -115 55 -135 165 -15 85 -28 127 -43 133 -16 6 -156 6 -184 0z m280 -709 c181 -59 340 -193 422 -354 66 -130 90 -312 61 -455 -32 -159 -135 -319 -264 -413 -144 -104 -251 -142 -403 -142 -172 0 -276 36 -419 144 -94 70 -150 139 -205 251 -62 126 -84 250 -66 378 22 155 92 304 187 401 47 48 145 121 198 148 143 73 342 90 489 42z"/>
    <path d="M10131 12235 c-74 -21 -111 -46 -176 -118 -71 -80 -99 -158 -98 -270 2 -131 50 -223 161 -314 69 -56 139 -77 246 -71 105 6 155 29 242 111 91 86 119 152 119 282 0 128 -21 182 -102 266 -82 86 -153 119 -262 125 -49 3 -95 -1 -130 -11z"/>
    <path d="M10970 9710 l0 -130 103 0 c118 0 165 10 196 44 49 52 36 159 -23 196 -29 17 -50 20 -155 20 l-121 0 0 -130z"/>
    <path d="M10978 9425 c-5 -5 -8 -68 -8 -142 l0 -133 141 0 141 0 33 33 c47 47 55 98 24 156 -39 73 -57 81 -200 88 -68 3 -127 2 -131 -2z"/>
    <path d="M14118 9834 c-2 -5 -4 -160 -4 -344 l1 -335 107 0 c102 0 108 1 150 30 28 21 53 50 73 90 28 55 30 67 34 189 2 77 -2 152 -8 183 -15 67 -58 124 -118 159 -40 24 -61 29 -139 32 -50 2 -93 0 -96 -4z"/>
    <path d="M13080 7058 c-1 -2 -2 -85 -5 -185 -4 -192 -9 -216 -57 -259 -12 -12 -33 -27 -45 -33 -16 -8 -595 -11 -2157 -11 l-2136 0 0 -300 0 -300 2113 0 c1443 0 2124 -3 2150 -11 50 -13 103 -61 117 -105 7 -21 13 -109 14 -214 l1 -179 25 16 c14 9 101 82 194 162 93 80 233 199 310 264 78 66 203 171 279 235 75 63 137 120 136 126 0 11 -19 28 -233 205 -272 224 -619 518 -669 565 -25 23 -36 31 -37 24z"/>
    <path d="M7470 6270 l0 -300 180 0 180 0 0 284 c0 156 -3 291 -6 300 -5 14 -31 16 -180 16 l-174 0 0 -300z"/>
  </g>
</svg>